<svg width="48" height="48" xmlns="http://www.w3.org/2000/svg">

 <g>
  <title>background</title>
  <rect fill="none" id="canvas_background" height="402" width="582" y="-1" x="-1"/>
 </g>
 <g>
  <title>Layer 1</title>
  <ellipse id="svg_2" fill="#F43734" ry="0.9429" rx="2.93345" cy="34.73875" cx="23.99998"/>
  <path id="svg_4" fill="#F43734" d="m24.00505,12.31835c-3.7701,0 -6.81,3.05 -6.81,6.81c0,0.14 0.01,0.28 0.0199,0.42c0.03,0.56 0.13,1.12 0.31,1.66c0.1701,0.53 0.4,1.03 0.71,1.5c0.0201,0.03 0.2101,0.3 0.5,0.74c0,0 0,0 0.01,0.01c1.3,1.96 4.73,7.09 4.75,7.12c0.24,0.36 0.7701,0.36 1.0101,0c0.01,-0.02 0.0299,-0.04 0.0399,-0.05c0.07,-0.11 5.11,-7.66 5.2701,-7.89c0.0399,-0.07 0.0899,-0.14 0.13,-0.21c0.2699,-0.46 0.4699,-0.95 0.6099,-1.46c0.17,-0.6 0.25,-1.22 0.25,-1.84c0,-3.76 -3.0499,-6.81 -6.7999,-6.81zm0.1699,10.26c-1.5,0.09 -2.7899,-1.05 -2.89,-2.55c-0.0899,-1.5 1.0501,-2.79 2.5401,-2.88c1.5,-0.1 2.8,1.04 2.8899,2.54c0.09,1.5 -1.04,2.79 -2.54,2.89z"/>
  <path id="svg_5" fill="#FC6060" d="m18.55295,16.72375c0,0 1.5527,-3.7647 5.447,-3.4889c0,0 1.1516,-0.0063 1.1512,0.5481c-0.0004,0.6544 -1.1512,0.4563 -1.1512,0.4563s-3.3915,-0.4118 -5.447,2.4845z"/>
 </g>
</svg>